<?xml version="1.0" standalone="no"?>
<!DOCTYPE svg PUBLIC "-//W3C//DTD SVG 20010904//EN"
 "http://www.w3.org/TR/2001/REC-SVG-20010904/DTD/svg10.dtd">
<svg version="1.0" xmlns="http://www.w3.org/2000/svg"
 width="512.000000pt" height="512.000000pt" viewBox="0 0 512.000000 512.000000"
 preserveAspectRatio="xMidYMid meet">

<g transform="translate(0.000000,512.000000) scale(0.100000,-0.100000)"
fill="#000000" stroke="none">
<path d="M234 4886 c-89 -28 -162 -96 -206 -192 l-23 -49 0 -1675 c0 -1322 3
-1684 13 -1717 18 -61 72 -134 126 -170 98 -67 1 -63 1598 -63 l1448 0 0 165
0 165 -1384 0 -1385 0 -28 24 -28 24 0 1560 0 1560 24 26 24 26 1389 0 1388 0
0 165 0 165 -1457 -1 c-1158 0 -1466 -3 -1499 -13z"/>
<path d="M540 2960 l0 -1440 1325 0 1325 0 0 70 0 70 -115 0 c-137 0 -237 19
-353 65 -177 72 -349 220 -443 381 -89 152 -119 256 -126 431 -8 180 19 313
93 458 l32 65 -40 32 -40 31 -50 -18 c-64 -23 -145 -22 -200 2 l-43 19 -315
-235 -315 -236 3 -65 c5 -111 -48 -199 -147 -243 -188 -84 -397 87 -352 288
34 153 194 236 346 181 l51 -18 310 231 311 231 -1 73 c0 88 26 150 87 202 41
35 117 65 167 65 50 0 126 -30 167 -65 59 -50 86 -113 87 -203 1 -73 1 -73 40
-103 l39 -29 56 53 c176 168 386 249 638 249 l113 0 0 449 0 449 -1325 0
-1325 0 0 -1440z"/>
<path d="M1992 3397 c-32 -34 -30 -89 4 -116 56 -44 134 -8 134 62 0 69 -90
105 -138 54z"/>
<path d="M2920 3314 c-94 -20 -173 -51 -243 -97 -73 -47 -147 -106 -147 -117
0 -14 384 -294 400 -293 8 1 43 10 78 20 57 16 66 16 122 2 l60 -16 0 252 0
253 -22 6 c-40 10 -181 5 -248 -10z"/>
<path d="M2382 2878 c-188 -452 76 -942 556 -1034 78 -15 169 -18 221 -8 l31
7 0 252 0 252 -57 -15 c-176 -44 -344 105 -317 283 l6 41 -196 147 c-108 81
-200 147 -205 147 -5 0 -23 -33 -39 -72z"/>
<path d="M970 2635 c-49 -52 -12 -135 61 -135 29 0 42 6 58 26 44 56 11 134
-58 134 -27 0 -44 -7 -61 -25z"/>
<path d="M3015 2635 c-50 -49 -15 -135 55 -135 41 0 80 39 80 80 0 19 -9 40
-25 55 -15 16 -36 25 -55 25 -19 0 -40 -9 -55 -25z"/>
<path d="M2046 778 c-15 -40 -52 -145 -84 -233 l-58 -160 -248 -5 -248 -5 -24
-28 c-31 -36 -31 -71 1 -102 l24 -25 891 0 890 0 0 114 0 115 -71 200 -72 201
-487 0 -488 0 -26 -72z"/>
</g>
</svg>
