<?xml version="1.0" encoding="UTF-8" standalone="no"?>
<svg
   version="1.1"
   width="128px"
   height="128px"
   style="shape-rendering:geometricPrecision; text-rendering:geometricPrecision; image-rendering:optimizeQuality; fill-rule:evenodd; clip-rule:evenodd"
   id="svg2"
   sodipodi:docname="user-icon.svg"
   inkscape:version="1.3.2 (091e20e, 2023-11-25, custom)"
   xmlns:inkscape="http://www.inkscape.org/namespaces/inkscape"
   xmlns:sodipodi="http://sodipodi.sourceforge.net/DTD/sodipodi-0.dtd"
   xmlns="http://www.w3.org/2000/svg"
   xmlns:svg="http://www.w3.org/2000/svg">
  <defs
     id="defs2" />
  <sodipodi:namedview
     id="namedview2"
     pagecolor="#ffffff"
     bordercolor="#000000"
     borderopacity="0.25"
     inkscape:showpageshadow="2"
     inkscape:pageopacity="0.0"
     inkscape:pagecheckerboard="0"
     inkscape:deskcolor="#d1d1d1"
     inkscape:zoom="6.3515625"
     inkscape:cx="64"
     inkscape:cy="64"
     inkscape:window-width="1920"
     inkscape:window-height="1009"
     inkscape:window-x="1016"
     inkscape:window-y="-8"
     inkscape:window-maximized="1"
     inkscape:current-layer="svg2" />
  <g
     id="g1"
     style="fill:#344563;fill-opacity:1">
    <path
       style="opacity:0.965;fill:#344563;fill-opacity:1"
       fill="#000000"
       d="M 55.5,-0.5 C 60.8333,-0.5 66.1667,-0.5 71.5,-0.5C 93.784,8.4069 101.284,24.4069 94,47.5C 83.9328,64.4145 69.4328,69.9145 50.5,64C 32.6785,54.5526 26.5118,40.0526 32,20.5C 36.5966,9.72952 44.43,2.72952 55.5,-0.5 Z"
       id="path1" />
  </g>
  <g
     id="g2"
     style="fill:#344563;fill-opacity:1">
    <path
       style="opacity:0.967;fill:#344563;fill-opacity:1"
       fill="#000000"
       d="M 74.5,127.5 C 66.8333,127.5 59.1667,127.5 51.5,127.5C 31.3585,122.93 16.0251,111.763 5.5,94C 11.9825,79.3313 23.1492,70.498 39,67.5C 43.561,69.5304 48.061,71.6971 52.5,74C 59.8333,76 67.1667,76 74.5,74C 79.0568,71.5544 83.7235,69.3877 88.5,67.5C 103.866,70.6765 114.866,79.3432 121.5,93.5C 110.914,111.95 95.2478,123.284 74.5,127.5 Z"
       id="path2" />
  </g>
</svg>
